<?xml version="1.0" encoding="UTF-8"?><svg id="Layer_2" xmlns="http://www.w3.org/2000/svg" viewBox="0 0 1328.71 266"><defs><style>.cls-1{fill:#3a7bf8;}</style></defs><g id="Layer_1-2"><g><path class="cls-1" d="m71.13,80.91c13.49,0,24.84,1.69,34.06,5.06,9.21,3.37,16.56,8.09,22.08,14.16,5.5,6.07,9.43,13.43,11.79,22.08,2.37,8.65,3.55,18.15,3.55,28.48v106.87c-6.3,1.34-15.8,2.98-28.5,4.88-12.69,1.92-27.03,2.88-42.99,2.88-10.57,0-20.22-1.01-28.99-3.04-8.76-2.02-16.24-5.28-22.41-9.77-6.19-4.5-11.02-10.34-14.5-17.53-3.48-7.2-5.22-16.07-5.22-26.63s1.96-18.66,5.9-25.62c3.93-6.96,9.28-12.65,16.02-17.02,6.73-4.39,14.55-7.53,23.43-9.44,8.87-1.91,18.15-2.86,27.81-2.86,4.5,0,9.21.29,14.16.84,4.94.57,10.23,1.52,15.85,2.86v-6.73c0-4.73-.56-9.22-1.69-13.49-1.12-4.26-3.1-8.03-5.9-11.29-2.82-3.26-6.52-5.79-11.13-7.59-4.61-1.8-10.4-2.69-17.37-2.69-9.43,0-18.09.67-25.96,2.02-7.87,1.36-14.27,2.93-19.21,4.73l-5.06-33.05c5.17-1.8,12.69-3.59,22.58-5.39,9.9-1.8,20.45-2.7,31.69-2.7Zm3.37,152.04c12.58,0,22.14-.67,28.66-2.02v-45.18c-2.25-.67-5.51-1.34-9.77-2.03-4.28-.67-8.99-1-14.16-1-4.51,0-9.06.33-13.65,1-4.62.68-8.77,1.92-12.47,3.71-3.71,1.81-6.7,4.33-8.94,7.58-2.25,3.26-3.37,7.37-3.37,12.31,0,9.66,3.03,16.35,9.1,20.07,6.07,3.7,14.27,5.55,24.61,5.55Z"/><path class="cls-1" d="m556.21,150.7c-5.17,19.78-10.72,39.05-16.68,57.82-5.95,18.78-11.83,36.47-17.67,53.1h-33.49c-4.51-10.34-9.23-22.14-14.19-35.4-4.95-13.26-9.91-27.42-14.85-42.48-4.96-15.05-9.92-30.9-14.86-47.53-4.95-16.64-9.8-33.6-14.52-50.91h43.17c2.04,9.43,4.41,19.6,7.11,30.51,2.71,10.9,5.53,22.03,8.47,33.37,2.94,11.36,5.99,22.42,9.16,33.21,3.15,10.79,6.32,20.68,9.49,29.66,3.37-10.32,6.7-21,9.96-32.02,3.26-11.01,6.37-22.03,9.29-33.04,2.93-11.02,5.7-21.75,8.29-32.2,2.59-10.46,4.89-20.29,6.92-29.5h31.36c2.02,9.21,4.26,19.04,6.72,29.5,2.47,10.45,5.1,21.18,7.9,32.2,2.81,11.01,5.84,22.03,9.09,33.04,3.24,11.02,6.56,21.7,9.92,32.02,2.93-8.98,5.98-18.88,9.15-29.66,3.16-10.79,6.27-21.85,9.32-33.21,3.05-11.34,5.93-22.47,8.64-33.37,2.7-10.91,5.08-21.08,7.12-30.51h42.15c-4.73,17.31-9.58,34.27-14.52,50.91-4.95,16.63-9.91,32.47-14.86,47.53-4.95,15.06-9.91,29.22-14.86,42.48-4.95,13.27-9.78,25.07-14.51,35.4h-33.17c-5.83-16.63-11.83-34.32-18.01-53.1-6.18-18.77-11.85-38.04-17-57.82Z"/><path class="cls-1" d="m687.18,174.3c0-15.51,2.29-29.1,6.91-40.79,4.61-11.69,10.73-21.41,18.37-29.17,7.64-7.75,16.41-13.6,26.3-17.53,9.88-3.92,20-5.9,30.34-5.9,24.28,0,43.21,7.54,56.81,22.59,13.59,15.06,20.4,37.53,20.4,67.43,0,2.25-.07,4.77-.18,7.58-.11,2.82-.29,5.34-.51,7.59h-116.31c1.12,14.16,6.12,25.11,15,32.87,8.88,7.75,21.75,11.63,38.61,11.63,9.88,0,18.93-.89,27.14-2.7,8.2-1.8,14.66-3.7,19.38-5.73l5.39,33.38c-2.25,1.13-5.33,2.31-9.27,3.55-3.93,1.23-8.43,2.36-13.49,3.36-5.06,1.01-10.51,1.86-16.35,2.53-5.84.67-11.8,1.01-17.86,1.01-15.51,0-28.99-2.31-40.46-6.91-11.46-4.61-20.9-11.02-28.32-19.22-7.42-8.21-12.93-17.87-16.52-29-3.59-11.12-5.39-23.31-5.39-36.57Zm118.33-18.2c0-5.62-.79-10.96-2.37-16.02-1.58-5.06-3.87-9.43-6.91-13.15-3.03-3.7-6.74-6.62-11.12-8.76-4.39-2.14-9.61-3.21-15.68-3.21s-11.8,1.18-16.52,3.54c-4.73,2.36-8.72,5.45-11.97,9.28-3.26,3.82-5.8,8.2-7.59,13.15-1.8,4.95-3.03,10.01-3.7,15.17h75.86Z"/><path class="cls-1" d="m933.97,264.99c-12.13-.23-22.19-1.58-30.17-4.04-7.98-2.47-14.32-6.02-19.05-10.62-4.72-4.61-8.03-10.34-9.94-17.19-1.92-6.85-2.86-14.67-2.86-23.44V6.74l40.79-6.74v201.95c0,4.95.39,9.1,1.18,12.47.78,3.37,2.19,6.24,4.21,8.59,2.03,2.36,4.77,4.17,8.26,5.39,3.48,1.25,7.92,2.19,13.31,2.86l-5.73,33.72Z"/><path class="cls-1" d="m1017.23,264.99c-12.13-.23-22.19-1.58-30.17-4.04-7.98-2.47-14.32-6.02-19.05-10.62-4.72-4.61-8.03-10.34-9.94-17.19-1.92-6.85-2.86-14.67-2.86-23.44V6.74l40.79-6.74v201.95c0,4.95.39,9.1,1.18,12.47.78,3.37,2.19,6.24,4.21,8.59,2.03,2.36,4.77,4.17,8.26,5.39,3.48,1.25,7.92,2.19,13.31,2.86l-5.73,33.72Z"/><path class="cls-1" d="m411.8,129.63c-1.92-9.99-5.4-18.55-10.46-25.62-5.06-7.09-12.02-12.58-20.9-16.52-8.88-3.93-20.18-5.91-33.88-5.91-5.39,0-10.73.56-16.01,1.69-5.28,1.12-10.28,2.53-15,4.22-4.73,1.69-8.99,3.54-12.82,5.55-3.59,1.9-6.53,3.69-8.93,5.39-2.4-1.7-5.34-3.49-8.93-5.39-3.82-2.02-8.09-3.87-12.82-5.55-4.72-1.69-9.72-3.1-15-4.22-5.28-1.12-10.62-1.69-16.01-1.69-13.71,0-25,1.97-33.88,5.91-8.88,3.93-15.85,9.43-20.9,16.52-5.06,7.07-8.54,15.63-10.46,25.62-1.91,10.01-2.86,20.96-2.86,32.87v99.12h40.79v-92.71c0-18.42,2.26-31.74,6.74-39.94,4.51-8.21,13.15-12.31,25.96-12.31,6.52,0,12.71,1.07,18.55,3.21,3.33,1.22,6.05,2.41,8.43,3.59v138.17h40.78V123.44c2.38-1.18,5.1-2.37,8.43-3.59,5.84-2.14,12.02-3.21,18.55-3.21,12.82,0,21.45,4.1,25.96,12.31,4.48,8.21,6.74,21.52,6.74,39.94v92.71h40.79v-99.12c0-11.91-.96-22.86-2.86-32.87Z"/></g><path class="cls-1" d="m1286.73,245.04c0-3.72.93-7.21,2.79-10.47,1.86-3.26,4.42-5.82,7.68-7.7,3.26-1.88,6.76-2.82,10.52-2.82s7.21.93,10.47,2.79c3.26,1.86,5.82,4.42,7.7,7.68,1.88,3.26,2.82,6.76,2.82,10.52s-.9,7.11-2.71,10.33c-1.81,3.22-4.34,5.8-7.59,7.73-3.26,1.94-6.82,2.9-10.69,2.9s-7.41-.96-10.66-2.89c-3.26-1.93-5.79-4.5-7.61-7.72-1.81-3.22-2.72-6.67-2.72-10.36Zm2.93,0c0,3.22.81,6.23,2.43,9.03,1.62,2.8,3.83,5.01,6.63,6.62,2.8,1.61,5.8,2.41,9,2.41s6.24-.81,9.02-2.43c2.77-1.62,4.97-3.81,6.6-6.57,1.63-2.76,2.44-5.78,2.44-9.06s-.81-6.24-2.43-9.02c-1.62-2.77-3.81-4.97-6.57-6.6-2.76-1.63-5.78-2.44-9.06-2.44s-6.24.81-9.02,2.43c-2.77,1.62-4.97,3.81-6.6,6.57-1.63,2.76-2.44,5.78-2.44,9.06Zm26.57-5.08c0,1.49-.4,2.81-1.19,3.95-.79,1.14-1.9,2-3.34,2.55l6.64,11.03h-4.69l-5.78-9.88h-3.77v9.88h-4.13v-24.87h7.29c3.09,0,5.35.61,6.8,1.81,1.44,1.21,2.16,3.05,2.16,5.53Zm-12.11,4.21h3.01c1.49,0,2.68-.39,3.59-1.16.9-.77,1.35-1.75,1.35-2.94,0-1.4-.4-2.4-1.2-3-.8-.6-2.07-.91-3.8-.91h-2.96v8.01Z"/><g><path class="cls-1" d="m1305.74,53.49c-12.93-13.74-30.12-22.41-48.38-24.42-19.38-2.14-38.59,3.13-54.36,14.86-12.19-9.04-26.45-14.28-41.4-15.18-22.86-1.41-45.21,7.6-61.33,24.73-20.78,22.07-28.25,54.22-19.48,83.91,1.09,3.71,3.57,6.77,6.96,8.61,3.39,1.84,7.3,2.25,11,1.16,3.7-1.09,6.76-3.56,8.61-6.95,1.85-3.39,2.26-7.3,1.17-11.01-5.86-19.87-.96-41.29,12.81-55.91,10.22-10.85,24.26-16.57,38.53-15.69,12.26.74,23.86,6.25,32.67,15.53,2.72,2.86,6.54,4.5,10.48,4.5s7.77-1.64,10.48-4.5c10.83-11.4,25.67-16.99,40.71-15.33,11.6,1.27,22.14,6.63,30.49,15.5,20.24,21.5,20.32,56.53.19,78.13l-81.6,79.84-18.21-17.9c-5.68-5.59-14.85-5.52-20.44.15-5.6,5.68-5.53,14.85.15,20.45l28.32,27.86c2.72,2.68,6.33,4.16,10.15,4.16s7.39-1.46,10.11-4.12l91.99-90.01.39-.4c30.62-32.53,30.62-85.46,0-117.98Z"/><path class="cls-1" d="m1243.2,114.75c.04-4.24-1.57-8.24-4.53-11.27-2.97-3.03-6.93-4.72-11.17-4.76-4.24-.02-8.24,1.57-11.27,4.53l-69.43,68.03-18.45-17.99c-6.27-6.11-16.33-5.98-22.44.29-6.11,6.26-5.98,16.33.29,22.44l29.56,28.81c2.98,2.9,6.91,4.5,11.07,4.5s8.13-1.61,11.11-4.53l80.51-78.88c3.03-2.97,4.72-6.93,4.76-11.17Z"/></g></g></svg>